<svg width="30" height="30" viewBox="0 0 30 30" fill="#C4C4C4" xmlns="http://www.w3.org/2000/svg">
<path fill-rule="evenodd" clip-rule="evenodd" d="M25 15C25 9.47715 20.5229 5 15 5C9.4772 5 5.00005 9.47715 5.00005 15C5.00005 20.5228 9.4772 25 15 25C20.5229 25 25 20.5228 25 15ZM9.69674 11.0225C9.33063 10.6564 9.33063 10.0628 9.69674 9.69671C10.0629 9.33059 10.6565 9.33059 11.0226 9.69671L15 13.6742L18.9775 9.69671C19.3436 9.33059 19.9372 9.33059 20.3033 9.69671C20.6695 10.0628 20.6695 10.6564 20.3033 11.0225L16.3259 15L20.3033 18.9775C20.6695 19.3436 20.6695 19.9372 20.3033 20.3033C19.9372 20.6694 19.3436 20.6694 18.9775 20.3033L15 16.3258L11.0226 20.3033C10.6565 20.6694 10.0629 20.6694 9.69674 20.3033C9.33063 19.9372 9.33063 19.3436 9.69674 18.9775L13.6742 15L9.69674 11.0225Z" />
</svg>
